<svg xmlns="http://www.w3.org/2000/svg" xmlns:xlink="http://www.w3.org/1999/xlink" width="128" height="128" viewBox="0 0 128 128">
  <defs>
    <clipPath id="clip-Profile">
      <rect width="128" height="128"/>
    </clipPath>
  </defs>
  <g id="Profile" clip-path="url(#clip-Profile)">
    <g id="Profile-2" data-name="Profile" transform="translate(1.833 86.213)">
      <path id="패스_9" data-name="패스 9" d="M73.6-65.631c-7.773,3.568-15.241,6.777-17.233,7.441-5.062,1.66-9.93,2.351-18.118,2.545l-6.832.166-.857,2.794c-2.987,9.847-4.121,13.111-5.007,14.19a33.848,33.848,0,0,1-5.2,4.785c-3.707,2.849-2.9,2.545,3.817-1.466,7.883-4.73,41.961-25.061,48.13-28.74,2.766-1.66,5.034-3.07,5.034-3.126C77.33-67.291,76.888-67.125,73.6-65.631Z" transform="translate(5.998 0)" fill="#fff"/>
      <path id="패스_10" data-name="패스 10" d="M82.332-57.684c-1.826,1.549-4.841,4.121-6.749,5.726-1.881,1.632-5.5,4.675-8.022,6.8s-4.619,3.955-4.7,4.038-1.328,1.134-2.766,2.351-3.983,3.375-5.643,4.785a26.145,26.145,0,0,1-3.1,2.462c-.138-.138,1.521-5.836,3.07-10.7,1.438-4.426,3.209-10.594,3.07-10.7-.055-.055-2.268,1.189-4.9,2.766-2.655,1.577-7.109,4.232-9.93,5.919C22.64-32.319,10.027-24.767,10.027-24.657c0,.083.332,0,.747-.166,14.19-5.67,15.85-5.864,15.85-1.964a10.693,10.693,0,0,1-.249,2.406c-.138.47-1.079,3.568-2.1,6.915s-2.324,7.634-2.9,9.543c-.553,1.909-1.992,6.583-3.153,10.428-1.162,3.817-2.1,7.026-2.1,7.109,0,.111,5.062.138,11.258.111L38.6,9.643l1.079-3.458c.581-1.909,1.66-5.5,2.434-8.022.747-2.517,1.549-5.09,1.743-5.753.332-1.134.636-1.383,5.449-4.647a36.2,36.2,0,0,1,5.283-3.236c.221.221,2.877,6.39,4.453,10.262.857,2.158.857,2.932,0,4.619a33.764,33.764,0,0,1-5.864,6.915c-3.707,3.4-3.651,3.319-2.406,2.655.553-.3,3.1-1.826,5.67-3.375,2.545-1.549,7.413-4.453,10.843-6.473s8.464-5.007,11.2-6.639,6.666-3.956,8.713-5.173c6.03-3.6,6.141-3.679,2.628-2.517a13.388,13.388,0,0,1-4.564.747c-2.711,0-3.6-.332-5.034-2.019-.94-1.106-6.334-12.06-6.279-12.779a44.632,44.632,0,0,1,5.311-4.481c2.932-2.241,8.354-6.445,12.088-9.349,7.856-6.113,16.265-12.641,19.446-15.1,1.217-.94,2.351-1.853,2.517-2.019.194-.194-4.149-.277-13.72-.277h-14Z" transform="translate(0 4.915)" fill="#fff"/>
      <path id="패스_11" data-name="패스 11" d="M44.025-55.585a3.74,3.74,0,0,1-1.77.277c-2.766,0-3.264.194-3.762,1.494-1.162,2.849-1.6,5.422-.968,5.422.166,0,.47-.415.692-.913.277-.609.387-.719.415-.332,0,.443.221.332,1.189-.636a5.164,5.164,0,0,1,1.466-1.162c.166,0,.553-.387.885-.83.36-.47.8-.83,1-.83.47,0,1.826-1.743,1.826-2.324C44.993-55.917,44.3-56.028,44.025-55.585Z" transform="translate(20.079 8.321)" fill="#fff"/>
      <path id="패스_12" data-name="패스 12" d="M76.089-54.757c-.747.526-5.726,4.315-8.243,6.279-.5.387-1.8,1.411-2.932,2.268s-2.738,2.1-3.6,2.766-2.047,1.577-2.628,2.075c-2.268,1.853-4.2,3.375-6.473,5.09-1.3.968-2.545,1.936-2.766,2.13-.221.166-.719.553-1.106.857l-.664.526,2.047,4.343a28.94,28.94,0,0,0,2.572,4.7c.3.194.47.47.387.609-.221.36.277,1.079.553.8a.211.211,0,0,0-.083-.36c-.194-.055-.277-.332-.194-.609a.632.632,0,0,0-.166-.692c-.5-.332.526-3.485,1.134-3.485.138,0,.221-.166.221-.387a5.394,5.394,0,0,1,1.521-1.577A7.941,7.941,0,0,0,57.2-30.83c0-.138.166-.221.387-.221a7.643,7.643,0,0,0,1.909-1.521,7.3,7.3,0,0,1,1.853-1.521c.249,0,1.632-1.023,4.426-3.319,1.77-1.466,2.268-1.853,3.485-2.766a21.4,21.4,0,0,0,1.964-1.6,2.229,2.229,0,0,1,1.051-.609.59.59,0,0,0,.47-.221,12.426,12.426,0,0,1,1.687-1.438,8.917,8.917,0,0,0,1.577-1.438,3.1,3.1,0,0,1,1.051-.885,9.342,9.342,0,0,0,1.466-1.051c.221-.194.664-.553.968-.774.332-.221,1.355-.94,2.268-1.577,1.853-1.3,4.758-3.983,4.758-4.4,0-.692-1.687-.968-5.366-.885a14.617,14.617,0,0,1-3.762-.138C77.389-55.531,77.03-55.393,76.089-54.757Z" transform="translate(27.79 8.682)" fill="#fff"/>
      <path id="패스_13" data-name="패스 13" d="M42.5-31.043c-1.936,1.3-3.734,2.545-3.955,2.766-.553.47-.636.692-3.873,11.59-.636,2.13-1.438,4.675-1.8,5.67l-.636,1.8-5.892.166c-3.264.083-5.947.166-5.975.194-.055.028-.055.138-.028.249A7.368,7.368,0,0,1,20.2-7.172a2.264,2.264,0,0,0,.221,1.881l.443.664,6.888-.055a70.081,70.081,0,0,1,7.136.138c.387.221.692-.277.443-.747-.166-.249-.111-.249.194.028.443.387.913.443.664.055-.083-.166.028-.194.249-.111.249.083.443.028.443-.138a.35.35,0,0,1,.387-.3c.194,0,.443-.387.553-.857.111-.553.277-.775.5-.636.194.138.249.055.138-.221a11.228,11.228,0,0,1,.968-3.983,4.332,4.332,0,0,0,.332-1.245,3.687,3.687,0,0,1,.387-1.217,10.119,10.119,0,0,0,.581-1.66c.719-2.96,1.328-4.592,2.047-5.366a3.485,3.485,0,0,0,.747-1.106c0-.138.387-.526.83-.857.47-.332.775-.692.692-.8-.055-.138.332-.47.885-.747,1.217-.636,2.3-1.6,2.3-2.1.028-.221.166-.138.415.166.387.526.415.526.415-.194,0-1.106-2.324-6.832-2.766-6.832A43.984,43.984,0,0,0,42.5-31.043Z" transform="translate(7.444 24.882)" fill="#fff"/>
      <path id="패스_14" data-name="패스 14" d="M59.637-31.111a12.287,12.287,0,0,1-1.521.913c-3.153,1.743-14.411,8.575-14.3,8.713.111.111,8.685-4.9,13.886-8.1,1.494-.94,2.019-1.134,2.241-.857a20.474,20.474,0,0,1,1.494,3.015,13.352,13.352,0,0,0,1.411,2.711c.138,0,.249.194.249.415,0,.747.553.443.581-.36.028-.443.083-.553.166-.277.166.692.636.636.636-.055a.813.813,0,0,1,.415-.719.7.7,0,0,0,.415-.553,2.244,2.244,0,0,0-1.494-1.494,1.344,1.344,0,0,1-.83-.609c-.249-.332-.443-.553-.443-.443s-.5-.3-1.106-.885a4.481,4.481,0,0,1-1.106-1.355C60.328-31.415,60-31.443,59.637-31.111Z" transform="translate(24.936 26.416)" fill="#fff"/>
      <path id="패스_15" data-name="패스 15" d="M56.994-22.072c-7.081,4.232-16.292,9.737-20.469,12.2-4.177,2.489-7.8,4.7-8.022,4.924s.581-.055,1.8-.609c5.09-2.351,5.919-2.711,8.907-3.873a76.958,76.958,0,0,1,10.262-3.153c.94-.194,6.334-.3,15.13-.3,8.354,0,13.692-.111,13.692-.249,0-.166-1.272-2.932-2.794-6.168-1.549-3.236-3.292-6.915-3.873-8.188a6.719,6.719,0,0,0-1.438-2.268C70.023-29.761,64.075-26.3,56.994-22.072Z" transform="translate(13.609 27.584)" fill="#fff"/>
      <path id="패스_16" data-name="패스 16" d="M58.974-19.35c-7.5.138-9.82.249-9.93.5a.468.468,0,0,1-.387.36,3.8,3.8,0,0,0-1.162.692,4.2,4.2,0,0,1-1.106.692c-.47,0-1.826,1.272-1.826,1.715,0,.47.581.5,11.147.553,6.113.028,11.562.028,12.088-.028,1.3-.083,2.379-.885,2.3-1.715-.111-.913-.913-3.015-1.134-2.96C68.849-19.516,64.367-19.433,58.974-19.35Z" transform="translate(25.488 35.124)" fill="#fff"/>
    </g>
  </g>
</svg>
